<svg id="Layer_1" enable-background="new 0 0 512 512" height="512" viewBox="0 0 512 512" width="512" xmlns="http://www.w3.org/2000/svg"><g><g><path d="m366.933 108.959h34.133v49.037h-34.133z" fill="#babdce"/><path d="m461.867 119.501h-155.734c-8.837 0-16-7.163-16-16v-87.501c0-8.837 7.163-16 16-16h155.733c8.837 0 16 7.163 16 16v87.501c.001 8.837-7.163 16-15.999 16z" fill="#435d7a"/><path d="m435.733 85.368h-103.466c-4.418 0-8-3.582-8-8v-35.235c0-4.418 3.582-8 8-8h103.467c4.418 0 8 3.582 8 8v35.234c-.001 4.419-3.582 8.001-8.001 8.001z" fill="#b1e5a3"/><path d="m461.384 0h-23.694c9.103 0 16.483 7.38 16.483 16.483v86.535c0 9.103-7.38 16.483-16.483 16.483h23.694c9.103 0 16.483-7.38 16.483-16.483v-86.535c0-9.103-7.38-16.483-16.483-16.483z" fill="#2d3e53"/><path d="m435.492 34.133h-23.694c4.552 0 8.241 3.69 8.241 8.242v34.751c0 4.552-3.69 8.241-8.241 8.241h23.694c4.551 0 8.241-3.69 8.241-8.241v-34.751c0-4.552-3.69-8.242-8.241-8.242z" fill="#91d7a5"/></g><path d="m460.8 153.6c9.426 0 17.067 7.641 17.067 17.067v203.117h-443.734v-203.117c0-9.426 7.641-17.067 17.067-17.067z" fill="#e6ebef"/><path d="m460.8 153.6h-23.694c9.426 0 17.067 7.641 17.067 17.067v203.117h23.694v-203.117c0-9.426-7.641-17.067-17.067-17.067z" fill="#dae2ed"/><path d="m187.733 195.219h-102.4v-121.033c0-2.912 2.853-4.969 5.616-4.048l18.635 6.212c.876.292 1.823.292 2.698 0l22.901-7.634c.876-.292 1.823-.292 2.698 0l22.901 7.634c.876.292 1.823.292 2.698 0l18.635-6.212c2.763-.921 5.616 1.135 5.616 4.048v121.033z" fill="#fff0be"/><path d="m435.733 256h-171.733c-4.418 0-8-3.582-8-8v-52.267c0-4.418 3.582-8 8-8h171.733c4.418 0 8 3.582 8 8v52.267c0 4.418-3.581 8-8 8z" fill="#b1e5a3"/><g><g><g><path d="m298.667 297.86h-17.067c-4.268 0-7.726-3.459-7.726-7.726s3.459-7.726 7.726-7.726h17.067c4.268 0 7.726 3.459 7.726 7.726 0 4.266-3.458 7.726-7.726 7.726z" fill="#7cb1f7"/></g><g><path d="m298.667 331.993h-17.067c-4.268 0-7.726-3.459-7.726-7.726s3.459-7.726 7.726-7.726h17.067c4.268 0 7.726 3.459 7.726 7.726s-3.458 7.726-7.726 7.726z" fill="#7cb1f7"/></g><g><path d="m358.4 297.86h-17.067c-4.268 0-7.726-3.459-7.726-7.726s3.459-7.726 7.726-7.726h17.067c4.268 0 7.726 3.459 7.726 7.726.001 4.266-3.458 7.726-7.726 7.726z" fill="#7cb1f7"/></g><g><path d="m358.4 331.993h-17.067c-4.268 0-7.726-3.459-7.726-7.726s3.459-7.726 7.726-7.726h17.067c4.268 0 7.726 3.459 7.726 7.726.001 4.267-3.458 7.726-7.726 7.726z" fill="#7cb1f7"/></g><g><path d="m418.134 297.86h-17.067c-4.268 0-7.726-3.459-7.726-7.726s3.459-7.726 7.726-7.726h17.067c4.268 0 7.726 3.459 7.726 7.726 0 4.266-3.459 7.726-7.726 7.726z" fill="#7cb1f7"/></g><g><path d="m418.134 331.993h-17.067c-4.268 0-7.726-3.459-7.726-7.726s3.459-7.726 7.726-7.726h17.067c4.268 0 7.726 3.459 7.726 7.726s-3.459 7.726-7.726 7.726z" fill="#7cb1f7"/></g></g></g><g><g><path d="m153.6 127.193h-34.133c-4.267 0-7.726-3.459-7.726-7.726s3.459-7.726 7.726-7.726h34.133c4.267 0 7.726 3.459 7.726 7.726s-3.459 7.726-7.726 7.726z" fill="#ffd23b"/></g></g><g><g><path d="m153.6 161.327h-34.133c-4.267 0-7.726-3.459-7.726-7.726s3.459-7.726 7.726-7.726h34.133c4.267 0 7.726 3.459 7.726 7.726 0 4.266-3.459 7.726-7.726 7.726z" fill="#ffd23b"/></g></g><path d="m204.8 366.229h-136.533v-94.229c0-8.837 7.163-16 16-16h104.533c8.837 0 16 7.163 16 16z" fill="#435d7a"/><g><g><g><path d="m170.666 297.86h-68.266c-4.267 0-7.726-3.459-7.726-7.726s3.459-7.726 7.726-7.726h68.267c4.267 0 7.726 3.459 7.726 7.726 0 4.266-3.459 7.726-7.727 7.726z" fill="#b1e5a3"/></g></g></g><g><g><g><path d="m170.666 331.993h-68.266c-4.267 0-7.726-3.459-7.726-7.726s3.459-7.726 7.726-7.726h68.267c4.267 0 7.726 3.459 7.726 7.726s-3.459 7.726-7.727 7.726z" fill="#b1e5a3"/></g></g></g><path d="m435.492 187.733h-23.694c4.552 0 8.241 3.69 8.241 8.242v51.784c0 4.552-3.69 8.241-8.241 8.241h23.694c4.551 0 8.241-3.69 8.241-8.241v-51.784c0-4.552-3.69-8.242-8.241-8.242z" fill="#91d7a5"/><path d="m188.317 256h-23.694c9.103 0 16.483 7.38 16.483 16.483v93.747h23.694v-93.747c0-9.103-7.38-16.483-16.483-16.483z" fill="#2d3e53"/><path d="m182.117 70.139-18.078 6.026v119.055h23.694v-121.034c0-2.912-2.853-4.968-5.616-4.047z" fill="#fff0be"/><path d="m196.8 221.867h-120.533c-4.418 0-8-3.582-8-8v-18.133c0-4.418 3.582-8 8-8h120.533c4.418 0 8 3.582 8 8v18.133c0 4.418-3.582 8-8 8z" fill="#ffd23b"/><path d="m196.559 187.733h-23.694c4.552 0 8.241 3.69 8.241 8.242v17.65c0 4.552-3.69 8.241-8.241 8.241h23.694c4.552 0 8.241-3.69 8.241-8.241v-17.65c0-4.552-3.69-8.242-8.241-8.242z" fill="#ffb24a"/><path d="m496 512h-480c-8.837 0-16-7.163-16-16v-121.6c0-8.837 7.163-16 16-16h480c8.837 0 16 7.163 16 16v121.6c0 8.837-7.163 16-16 16z" fill="#7cb1f7"/><path d="m469.867 477.867h-427.734c-4.418 0-8-3.582-8-8v-69.333c0-4.418 3.582-8 8-8h427.733c4.418 0 8 3.582 8 8v69.333c.001 4.418-3.581 8-7.999 8z" fill="#f7f8fa"/><g><g><path d="m307.2 434.393h-102.4c-4.267 0-7.726-3.459-7.726-7.726s3.459-7.726 7.726-7.726h102.4c4.268 0 7.726 3.459 7.726 7.726.001 4.267-3.458 7.726-7.726 7.726z" fill="#ffd23b"/></g></g><path d="m495.517 358.4h-23.694c9.103 0 16.483 7.38 16.483 16.483v120.634c0 9.103-7.38 16.483-16.483 16.483h23.694c9.103 0 16.483-7.38 16.483-16.483v-120.634c0-9.103-7.38-16.483-16.483-16.483z" fill="#5e9ff3"/><path d="m469.625 392.533h-23.694c4.552 0 8.241 3.69 8.241 8.241v68.85c0 4.552-3.69 8.241-8.241 8.241h23.694c4.551 0 8.241-3.69 8.241-8.241v-68.85c.001-4.551-3.689-8.241-8.241-8.241z" fill="#e9eef2"/></g></svg>