<svg id="Capa_1" enable-background="new 0 0 512 512" height="512" viewBox="0 0 512 512" width="512" xmlns="http://www.w3.org/2000/svg"><g><path d="m76 150h60v140.098l-60 19.804z" fill="#ff884d"/><path d="m256 150h60v140.098l-60 19.804z" fill="#ec4c36"/><g><path d="m512 512h-61c-16.569 0-30-13.431-30-30v-92h-90v92c0 16.569-13.431 30-30 30h-301v-207.796l211-70.049v60l180-60v65.845h121z" fill="#f3f5f9"/></g><path d="m391 234.155-180 60v-60l-45 15.011v262.834h135c16.567 0 30-13.431 30-30v-92h90v92c0 16.569 13.433 30 30 30h61v-212h-121z" fill="#d8e0f0"/><path d="m76 375h180v60h-180z" fill="#80eaff"/><path d="m166 375h90v60h-90z" fill="#66bfff"/><g id="Factory_2_"><g><path d="m451 512h-150v-152h150z" fill="#8f9fbf"/></g><path d="m61 360v90h210v-90zm120 30v30h-30v-30zm-90 0h30v30h-30zm150 30h-30v-30h30z" fill="#66bfff"/><g><path d="m451 120h-214.219l4.658-18.633c10.518-42.026 48.106-71.367 91.407-71.367h66.387c10.605-18.296 30.263-30 51.767-30 33.076 0 61 26.909 61 60s-27.924 60-61 60z" fill="#b8c2d9"/></g><g><path d="m152.802 30c-43.202 0-80.702 29.399-91.502 71.4l-4.5 18.6h92.399c5.702 0 11.404-.601 16.802-1.5 32.999-6 60.601-29.401 72.001-61.5 1.198-3.001 2.098-5.7 2.699-8.401l4.499-18.599z" fill="#e1e6f0"/></g></g><path d="m166 390h15v30h-15v30h105v-90h-105zm45 0h30v30h-30z" fill="#4d87ff"/><path d="m245.2 30-4.5 18.6c-.601 2.701-1.501 5.4-2.699 8.401-11.4 32.098-39.001 55.499-72.001 61.5v-88.501z" fill="#b8c2d9"/></g></svg>