<svg id="Layer_1" enable-background="new 0 0 512 512" height="512" viewBox="0 0 512 512" width="512" xmlns="http://www.w3.org/2000/svg"><g><path d="m136 80v88c0 4.42-3.58 8-8 8h-48c-4.42 0-8-3.58-8-8v-88c0-8.82 7.18-16 16-16h32c8.82 0 16 7.18 16 16z" fill="#595965"/><path d="m120 64h-16v112h24c4.42 0 8-3.58 8-8v-88c0-8.82-7.18-16-16-16z" fill="#44454e"/><path d="m440 80v88c0 4.42-3.58 8-8 8h-48c-4.42 0-8-3.58-8-8v-88c0-8.82 7.18-16 16-16h32c8.82 0 16 7.18 16 16z" fill="#595965"/><path d="m392 64c-8.82 0-16 7.18-16 16v88c0 4.42 3.58 8 8 8h24v-112z" fill="#44454e"/><path d="m392 24v144c0 4.42-3.58 8-8 8h-256c-4.42 0-8-3.58-8-8v-144c0-13.23 10.77-24 24-24h224c13.23 0 24 10.77 24 24z" fill="#edebfd"/><path d="m368 0h-40c13.23 0 24 10.77 24 24v144c0 4.42-3.58 8-8 8h40c4.42 0 8-3.58 8-8v-144c0-13.23-10.77-24-24-24z" fill="#d2d2fc"/><path d="m512 200v176c0 22.06-17.94 40-40 40h-432c-22.06 0-40-17.94-40-40v-176c0-22.06 17.94-40 40-40h432c22.06 0 40 17.94 40 40z" fill="#595965"/><path d="m472 160h-40c22.06 0 40 17.94 40 40v176c0 22.06-17.94 40-40 40h40c22.06 0 40-17.94 40-40v-176c0-22.06-17.94-40-40-40z" fill="#44454e"/><path d="m408 344v72h-272v-72c0-4.42 3.58-8 8-8h256c4.42 0 8 3.58 8 8z" fill="#44454e"/><path d="m408 352h-304c-4.418 0-8-3.582-8-8s3.582-8 8-8h304c4.418 0 8 3.582 8 8s-3.582 8-8 8z" fill="#44454e"/><path d="m392 344v144c0 13.23-10.77 24-24 24h-224c-13.23 0-24-10.77-24-24v-144c0-4.42 3.58-8 8-8h256c4.42 0 8 3.58 8 8z" fill="#edebfd"/><path d="m384 336h-40c4.42 0 8 3.58 8 8v144c0 13.23-10.77 24-24 24h40c13.23 0 24-10.77 24-24v-144c0-4.42-3.58-8-8-8z" fill="#d2d2fc"/><circle cx="456" cy="216" fill="#79cb9c" r="24"/><path d="m448 193.377c21.28 7.552 21.284 37.693 0 45.246 15.589 5.532 32-6.114 32-22.623 0-16.55-16.442-28.144-32-22.623z" fill="#63ac7d"/><circle cx="392" cy="216" fill="#e48c9b" r="24"/><path d="m384 193.377c21.28 7.552 21.284 37.693 0 45.246 15.589 5.532 32-6.114 32-22.623 0-16.55-16.442-28.144-32-22.623z" fill="#cc5b6f"/><g fill="#595965"><path d="m176 392h168c4.418 0 8-3.582 8-8s-3.582-8-8-8h-168c-4.418 0-8 3.582-8 8s3.582 8 8 8z"/><path d="m344 416h-168c-4.418 0-8 3.582-8 8s3.582 8 8 8h168c4.418 0 8-3.582 8-8s-3.582-8-8-8z"/><path d="m344 456h-168c-4.418 0-8 3.582-8 8s3.582 8 8 8h168c4.418 0 8-3.582 8-8s-3.582-8-8-8z"/></g></g></svg>