<svg height="512pt" viewBox="-67 0 512 512" width="512pt" xmlns="http://www.w3.org/2000/svg"><path d="m378.078125 434.652344v41.535156c0 19.777344-15.683594 35.8125-35.027344 35.8125h-105.078125c-19.34375 0-35.027344-16.035156-35.027344-35.8125v-41.535156c0-32.859375 5.21875-65.496094 15.453126-96.644532 10.234374-31.148437 15.453124-63.785156 15.453124-96.644531v-11.117187h113.320313v11.117187c0 32.859375 5.21875 65.496094 15.453125 96.644531 10.234375 31.148438 15.453125 63.789063 15.453125 96.644532zm0 0" fill="#bdf9ff"/><path d="m362.625 338.007812c-10.234375-31.144531-15.453125-63.785156-15.453125-96.640624v-11.121094h-30.90625v11.117187c0 32.859375 5.21875 65.496094 15.453125 96.644531 10.234375 31.148438 15.453125 63.785157 15.453125 96.644532v41.535156c0 19.777344-15.683594 35.8125-35.027344 35.8125h30.90625c19.34375 0 35.027344-16.035156 35.027344-35.8125v-41.535156c0-32.855469-5.21875-65.496094-15.453125-96.644532zm0 0" fill="#8cf2ff"/><path d="m349.230469 236.425781h-117.441407c-2.273437 0-4.117187-1.84375-4.117187-4.121093v-228.183594c0-2.277344 1.84375-4.121094 4.117187-4.121094h117.441407c2.277343 0 4.121093 1.84375 4.121093 4.121094v228.183594c0 2.277343-1.84375 4.121093-4.121093 4.121093zm0 0" fill="#804d36"/><path d="m349.230469 0h-30.90625c2.277343 0 4.121093 1.84375 4.121093 4.121094v228.183594c0 2.277343-1.84375 4.121093-4.121093 4.121093h30.90625c2.277343 0 4.121093-1.84375 4.121093-4.121093v-228.183594c0-2.277344-1.84375-4.121094-4.121093-4.121094zm0 0" fill="#663b29"/><path d="m227.671875 132.378906h125.679687v47.386719h-125.679687zm0 0" fill="#ffd659"/><path d="m322.445312 132.378906h30.90625v47.386719h-30.90625zm0 0" fill="#ffbd54"/><path d="m152.292969 208.441406h-129.457031c0-35.75 28.980468-64.730468 64.730468-64.730468s64.726563 28.980468 64.726563 64.730468zm0 0" fill="#d1ffff"/><path d="m87.566406 143.710938c-5.589844 0-11.011718.707031-16.183594 2.039062 27.917969 7.183594 48.546876 32.527344 48.546876 62.691406h32.367187c-.003906-35.75-28.980469-64.730468-64.730469-64.730468zm0 0" fill="#bbeded"/><path d="m175.128906 434.652344v41.535156c0 19.777344-15.679687 35.8125-35.023437 35.8125h-105.078125c-19.347656 0-35.027344-16.035156-35.027344-35.8125v-41.535156c0-32.859375 5.21875-65.496094 15.453125-96.644532 10.234375-31.148437 15.453125-63.785156 15.453125-96.644531v-11.117187h113.320312v11.117187c0 32.859375 5.21875 65.496094 15.453126 96.644531 10.230468 31.148438 15.449218 63.789063 15.449218 96.644532zm0 0" fill="#bdf9ff"/><path d="m159.679688 338.007812c-10.234376-31.144531-15.453126-63.785156-15.453126-96.640624v-11.121094h-30.90625v11.117187c0 32.859375 5.21875 65.496094 15.453126 96.644531 10.234374 31.148438 15.453124 63.785157 15.453124 96.644532v41.535156c0 19.777344-15.683593 35.8125-35.027343 35.8125h30.90625c19.34375 0 35.023437-16.035156 35.023437-35.8125v-41.535156c0-32.855469-5.21875-65.496094-15.449218-96.644532zm0 0" fill="#8cf2ff"/><g fill="#4c779f"><path d="m87.566406 157.960938c-4.269531 0-7.726562 3.460937-7.726562 7.726562v.515625c0 4.269531 3.457031 7.726563 7.726562 7.726563 4.265625 0 7.726563-3.457032 7.726563-7.726563v-.515625c0-4.265625-3.460938-7.726562-7.726563-7.726562zm0 0"/><path d="m63.355469 173.585938c-4.265625 0-7.726563 3.457031-7.726563 7.726562v.515625c0 4.265625 3.460938 7.726563 7.726563 7.726563 4.269531 0 7.726562-3.460938 7.726562-7.726563v-.515625c0-4.269531-3.457031-7.726562-7.726562-7.726562zm0 0"/><path d="m111.773438 173.585938c-4.265626 0-7.726563 3.457031-7.726563 7.726562v.515625c0 4.265625 3.460937 7.726563 7.726563 7.726563 4.269531 0 7.726562-3.460938 7.726562-7.726563v-.515625c0-4.269531-3.457031-7.726562-7.726562-7.726562zm0 0"/><path d="m154.527344 236.425781h-133.921875c-8.535157 0-15.453125-6.917969-15.453125-15.453125 0-8.53125 6.917968-15.453125 15.453125-15.453125h133.921875c8.535156 0 15.453125 6.921875 15.453125 15.453125 0 8.535156-6.917969 15.453125-15.453125 15.453125zm0 0"/></g><path d="m154.527344 205.519531h-30.90625c8.535156 0 15.453125 6.921875 15.453125 15.453125 0 8.535156-6.917969 15.453125-15.453125 15.453125h30.90625c8.535156 0 15.453125-6.917969 15.453125-15.453125 0-8.53125-6.917969-15.453125-15.453125-15.453125zm0 0" fill="#3a5c7a"/></svg>