<?xml version="1.0" encoding="UTF-8" standalone="no"?>
<!DOCTYPE svg PUBLIC "-//W3C//DTD SVG 1.1//EN" "http://www.w3.org/Graphics/SVG/1.1/DTD/svg11.dtd">
<svg xmlns="http://www.w3.org/2000/svg" xmlns:xlink="http://www.w3.org/1999/xlink" version="1.1" width="375pt" height="375pt" viewBox="0 0 375 375">
<g enable-background="new">
<clipPath id="cp0">
<path transform="matrix(.24,0,0,.24,0,0)" d="M 0 0 L 1562.5 0 L 1562.5 1593.75 L 0 1593.75 Z " fill-rule="evenodd"/>
</clipPath>
<g clip-path="url(#cp0)">
<path transform="matrix(.75,0,0,.75,0,0)" d="M 0 0 L 500 0 L 500 510 L 0 510 Z " fill="#000000"/>
<path transform="matrix(.75,0,0,.75,0,0)" d="M 0 0 L 500 0 L 500 500 L 0 500 Z " fill="#ffffff"/>
</g>
<clipPath id="cp1">
<path transform="matrix(.24,0,0,.24,0,0)" d="M 0 0 L 1562.5 0 L 1562.5 1562.5 L 0 1562.5 Z " fill-rule="evenodd"/>
</clipPath>
<clipPath id="cp2">
<path transform="matrix(.24,0,0,.24,0,0)" d="M 156.25 484.15739 L 496.70869 484.15739 L 496.70869 828.4414 L 156.25 828.4414 Z " fill-rule="evenodd"/>
</clipPath>
<g clip-path="url(#cp2)">
<path transform="matrix(3.6144086,0,0,3.601699,129.27039,234.4041)" d="M -11.544999 -21.348999 C -11.544999 -21.169745 -11.562485 -20.99221 -11.597455 -20.816399 C -11.632425 -20.640589 -11.68421 -20.46988 -11.752807 -20.30427 C -11.821405 -20.13866 -11.9054989 -19.981333 -12.005087 -19.832287 C -12.104674 -19.683243 -12.217845 -19.545346 -12.344598 -19.418597 C -12.471349 -19.291844 -12.609246 -19.178675 -12.75829 -19.079087 C -12.907335 -18.979498 -13.064663 -18.895405 -13.230272 -18.826807 C -13.395882 -18.758212 -13.566591 -18.706427 -13.742402 -18.671456 C -13.918212 -18.636485 -14.095744 -18.619 -14.275 -18.619 C -14.454253 -18.619 -14.631784 -18.636485 -14.807594 -18.671456 C -14.983404 -18.706427 -15.154114 -18.758212 -15.319723 -18.826807 C -15.485332 -18.895405 -15.642658 -18.979498 -15.791703 -19.079087 C -15.940748 -19.178675 -16.078646 -19.291844 -16.205399 -19.418597 C -16.33215 -19.545346 -16.44532 -19.683243 -16.544909 -19.832287 C -16.644497 -19.981333 -16.72859 -20.13866 -16.797188 -20.30427 C -16.865786 -20.46988 -16.91757 -20.640589 -16.952542 -20.816399 C -16.987513 -20.99221 -17.004998 -21.169745 -17.005 -21.348999 C -17.004998 -21.528254 -16.987513 -21.705786 -16.952542 -21.881596 C -16.91757 -22.057406 -16.865786 -22.228114 -16.797188 -22.393723 C -16.72859 -22.559332 -16.644497 -22.71666 -16.544909 -22.865706 C -16.44532 -23.014748 -16.33215 -23.152647 -16.205399 -23.2794 C -16.078646 -23.406149 -15.940748 -23.51932 -15.791704 -23.61891 C -15.642659 -23.718497 -15.485332 -23.80259 -15.319723 -23.87119 C -15.154114 -23.939787 -14.983404 -23.991572 -14.807594 -24.026543 C -14.631784 -24.061514 -14.454253 -24.078999 -14.275 -24.079 C -14.095744 -24.078999 -13.918211 -24.061512 -13.7424 -24.02654 C -13.566591 -23.99157 -13.395882 -23.939785 -13.230271 -23.871188 C -13.064662 -23.80259 -12.907335 -23.718497 -12.75829 -23.61891 C -12.609245 -23.51932 -12.471348 -23.406149 -12.344596 -23.2794 C -12.217844 -23.152647 -12.104673 -23.014748 -12.005085 -22.865704 C -11.905497 -22.71666 -11.8214039 -22.559332 -11.752806 -22.393723 C -11.684208 -22.228114 -11.632424 -22.057406 -11.597454 -21.881596 C -11.562484 -21.705786 -11.544999 -21.528254 -11.544999 -21.348999 Z " fill="#000000"/>
<path transform="matrix(3.6144086,0,0,3.601699,129.27039,234.4041)" d="M -14.275 -32.813 C -19.617 -32.813 -24.105 -29.159 -25.377999 -24.215 C -25.38993 -24.17045 -25.396264 -24.125117 -25.396998 -24.079 C -25.396998 -23.779002 -25.152998 -23.533 -24.850998 -23.533 L -20.227997 -23.533 C -20.121098 -23.532637 -20.02276 -23.561474 -19.932986 -23.619509 C -19.84321 -23.677546 -19.776547 -23.755377 -19.732996 -23.853 C -19.732996 -23.853 -19.725996 -23.866002 -19.722996 -23.873002 C -18.769997 -25.929 -16.688996 -27.356 -14.272996 -27.356 C -10.955996 -27.356 -8.266996 -24.668002 -8.266996 -21.351002 C -8.266996 -18.034003 -10.954996 -15.346002 -14.2719969 -15.346002 C -16.686997 -15.346002 -18.767996 -16.773003 -19.721997 -18.829003 C -19.724997 -18.836003 -19.731997 -18.849003 -19.731997 -18.849003 C -19.819996 -19.043004 -20.013997 -19.169003 -20.226998 -19.169003 L -24.849999 -19.169003 C -25.151999 -19.169003 -25.395998 -18.925004 -25.395998 -18.623003 C -25.395478 -18.576859 -25.389143 -18.531525 -25.376999 -18.487004 C -24.103999 -13.543003 -19.614998 -9.889004 -14.273999 -9.889004 C -7.9419996 -9.890004 -2.7999993 -15.022003 -2.7999993 -21.353005 C -2.7999993 -27.684006 -7.932999 -32.817007 -14.263999 -32.817007 L -14.275 -32.813 Z " fill="#000000"/>
</g>
<clipPath id="cp3">
<path transform="matrix(.24,0,0,.24,0,0)" d="M 0 0 L 1562.5 0 L 1562.5 1562.5 L 0 1562.5 Z " fill-rule="evenodd"/>
</clipPath>
<g clip-path="url(#cp3)">
<g id="Layer-1" data-name="P">
</g>
<text fill="#000000" xml:space="preserve" transform="matrix(.75 0 0 .75 51 209.79137)" font-size="16" font-family="Courier New"><tspan y="17" x="0 14.080032 28.160065 42.240098 56.32013 70.40016 84.480197 98.56023 105.600238 119.68027 133.7603 140.80031 154.88034 168.96038 183.0404 197.12044 211.20047 225.2805 232.32051 246.40055 260.4806 267.5206 281.60066 295.68067 309.76069 323.8407 337.92073 352.00074">SISTEMA DE GEST&#xC3;O DE PEDIDOS</tspan></text>
<g id="Layer-1" data-name="P">
</g>
<text fill="#000000" xml:space="preserve" transform="matrix(3.327033 0 0 3.327033 127.03176 115.66915)" font-size="19.09" font-family="Courier New"><tspan y="20" x=".3125 17.10115 33.8898">SGP</tspan></text>
</g>
</g>
</svg>
