<svg id="Capa_1" enable-background="new 0 0 512 512" height="512" viewBox="0 0 512 512" width="512" xmlns="http://www.w3.org/2000/svg"><g><path d="m178.143 144.947h204.955v101.058h-204.955z" fill="#ade194"/><path d="m178.143 144.947h31.311v101.058h-31.311z" fill="#7dce6f"/><path d="m384.6 155.384h-206.457v-32.42h206.457c3.866 0 7 3.134 7 7v18.42c0 3.866-3.134 7-7 7z" fill="#edba94"/><path d="m178.143 122.964h31.403v32.42h-31.403z" fill="#e5a87f"/><path d="m400.172 457.598h-222.03v-222.03h94.334l21.899 10.437 21.899-10.437h76.897c3.866 0 7 3.134 7 7v215.03z" fill="#edba94"/><path d="m188.58 389.262v68.336h35.633l19.71-10.437c-5.185-28.619-27.175-51.462-55.343-57.899z" fill="#e5a87f"/><path d="m178.143 235.568h31.311v222.03h-31.311z" fill="#e5a87f"/><path d="m311.878 291.652-15.71-8.265c-.86-.452-1.885-.46-2.752-.022l-16.584 8.395c-1.996 1.01-4.355-.44-4.355-2.677v-53.516h43.798v53.429c0 2.258-2.399 3.707-4.397 2.656z" fill="#fd6930"/><g><g><path d="m362.725 390.149h-35.562c-4.324 0-7.828-3.505-7.828-7.828s3.504-7.828 7.828-7.828h35.562c4.324 0 7.828 3.505 7.828 7.828 0 4.324-3.505 7.828-7.828 7.828z" fill="#e5a87f"/></g></g><path d="m188.58 447.161v-259.358l-10-16.21 10-16.21v-67.501c0-1.857-.737-3.637-2.05-4.95l-78.185-78.184c-6.514-6.514-17.193-6.325-23.465.567-5.875 6.455-5.307 16.509.865 22.681l68.365 68.365c1.313 1.313 2.05 3.093 2.05 4.95v54.073l10 16.21-10 16.21v291.776h268.061c3.866 0 7-3.134 7-7v-18.42c0-3.866-3.134-7-7-7h-235.641z" fill="#897e8b"/><path d="m156.16 155.384h32.42v32.42h-32.42z" fill="#fd6930"/><circle cx="172.37" cy="460.157" fill="#685e67" r="51.843"/><circle cx="172.37" cy="460.157" fill="#f1f6f7" r="20.085"/><g><g><path d="m362.725 422.569h-35.562c-4.324 0-7.828-3.505-7.828-7.828s3.504-7.828 7.828-7.828h35.562c4.324 0 7.828 3.505 7.828 7.828s-3.505 7.828-7.828 7.828z" fill="#e5a87f"/></g></g></g></svg>