<?xml version="1.0" encoding="iso-8859-1"?>
<!-- Generator: Adobe Illustrator 19.0.0, SVG Export Plug-In . SVG Version: 6.00 Build 0)  -->
<svg version="1.1" id="Capa_1" xmlns="http://www.w3.org/2000/svg" xmlns:xlink="http://www.w3.org/1999/xlink" x="0px" y="0px"
	 viewBox="0 0 512 512" style="enable-background:new 0 0 512 512;" xml:space="preserve">
<g>
	<g>
		<path d="M496,0H16C7.168,0,0,7.168,0,16v480c0,8.832,7.168,16,16,16h320c4.24,0,8.32-1.68,11.312-4.688l160-160
			C510.32,344.32,512,340.24,512,336V16C512,7.168,504.832,0,496,0z M352,457.376V352h105.376L352,457.376z M480,320H336
			c-8.832,0-16,7.168-16,16v144H32V32h448V320z"/>
	</g>
</g>
<g>
</g>
<g>
</g>
<g>
</g>
<g>
</g>
<g>
</g>
<g>
</g>
<g>
</g>
<g>
</g>
<g>
</g>
<g>
</g>
<g>
</g>
<g>
</g>
<g>
</g>
<g>
</g>
<g>
</g>
</svg>
