<svg width="512" height="512" viewBox="0 0 512 512" fill="none" xmlns="http://www.w3.org/2000/svg">
<g clip-path="url(#clip0)">
<path d="M510.724 480.795C514.533 487.932 509.359 496.541 501.272 496.541H10.7235C2.63708 496.541 -2.53692 487.921 1.28224 480.784L247.053 21.1195C251.085 13.5666 261.924 13.5772 265.946 21.1302L510.724 480.795Z" fill="#FEE97D"/>
<path d="M501.674 463.801H98.5993C90.513 463.801 85.339 455.181 89.1581 448.044L291.63 69.3615L265.946 21.1302C261.924 13.5772 251.085 13.5666 247.053 21.1195L1.28224 480.784C-2.53692 487.921 2.63708 496.541 10.7235 496.541H501.272C509.359 496.541 514.533 487.932 510.724 480.795L501.674 463.801Z" fill="#FEE45A"/>
<path d="M468.614 401.715L492.969 447.447H19.1086L43.6121 401.616L468.614 401.715Z" fill="#FEE45A"/>
<path d="M113.974 401.632L43.6121 401.616L19.1086 447.447H89.4783L113.974 401.632Z" fill="#FEDF30"/>
<path d="M473.569 274.168C458.128 255.654 402.133 193.121 328.591 164.64L248.856 201.528L184.522 164.214C110.416 192.494 53.944 255.563 38.4305 274.168C35.8937 277.21 35.8916 281.635 38.4305 284.686C58.6465 308.903 148.375 408.585 256.005 408.585C363.625 408.585 453.353 308.903 473.569 284.686C476.108 281.635 476.107 277.21 473.569 274.168Z" fill="#F2FBFF"/>
<path d="M472.229 272.583C432.691 310.632 364.068 363.065 286.02 363.065C180.577 363.065 92.3223 267.388 69.7711 240.731C54.7921 255.147 43.9833 267.519 38.4284 274.175C35.8894 277.216 35.8894 281.643 38.4284 284.694C58.6444 308.91 148.373 408.593 256.003 408.593C363.622 408.593 453.351 308.91 473.567 284.694C476.106 281.643 476.106 277.216 473.567 274.175C473.155 273.682 472.698 273.137 472.229 272.583V272.583Z" fill="#DFF6FD"/>
<path d="M428.716 194.594C426.986 194.594 425.245 194.036 423.779 192.885C419.578 189.586 415.622 186.589 411.684 183.725C359.28 145.595 306.9 126.262 255.999 126.262C200.87 126.262 144.372 148.677 88.0742 192.885C84.5986 195.614 79.5697 195.009 76.8408 191.533C74.1108 188.057 74.7168 183.028 78.1924 180.298C137.377 133.824 197.2 110.26 255.999 110.26C310.355 110.26 365.902 130.624 421.1 170.786C425.195 173.766 429.304 176.878 433.661 180.298C437.137 183.027 437.742 188.056 435.014 191.533C433.436 193.544 431.086 194.594 428.716 194.594V194.594Z" fill="#99E6FC"/>
<path d="M485.002 246.731C482.844 246.731 480.692 245.863 479.114 244.15C472.959 237.466 466.421 230.772 459.679 224.254C456.502 221.182 456.418 216.116 459.49 212.941C462.561 209.765 467.626 209.678 470.803 212.751C477.764 219.483 484.52 226.4 490.883 233.31C493.878 236.561 493.669 241.623 490.418 244.616C488.883 246.031 486.941 246.731 485.002 246.731Z" fill="#99E6FC"/>
<path d="M26.9559 246.731C25.0228 246.731 23.0844 246.035 21.5482 244.625C18.2923 241.637 18.0758 236.576 21.0628 233.32C27.4327 226.379 34.1696 219.461 41.0868 212.757C44.2594 209.683 49.3246 209.76 52.4002 212.934C55.4758 216.107 55.3969 221.173 52.2231 224.248C45.53 230.735 39.0129 237.428 32.8532 244.139C31.2743 245.858 29.1183 246.731 26.9559 246.731V246.731Z" fill="#99E6FC"/>
<path d="M382.461 192.694C365.995 181.938 347.9 172.122 328.598 164.643L319.369 179.336L201.974 180.159L184.519 164.212C165.182 171.598 147.042 181.345 130.519 192.059C130.459 193.592 130.423 195.143 130.423 196.69C130.423 263.427 186.858 317.529 256.475 317.529C326.091 317.529 382.526 263.427 382.526 196.69C382.526 195.352 382.506 194.021 382.461 192.694V192.694Z" fill="#99E6FC"/>
<path d="M184.512 164.219C181.103 172.935 179.209 182.424 179.209 192.349C179.209 235.019 213.799 269.609 256.469 269.609C299.139 269.609 333.729 235.018 333.729 192.349C333.729 182.587 331.901 173.243 328.597 164.643C305.85 155.825 281.427 150.266 256.002 150.266C230.988 150.267 206.945 155.647 184.512 164.219V164.219Z" fill="#A79BA7"/>
<path d="M303.046 253.189C319.846 253.189 333.466 239.57 333.466 222.769C333.466 205.969 319.846 192.349 303.046 192.349C286.245 192.349 272.626 205.969 272.626 222.769C272.626 239.57 286.245 253.189 303.046 253.189Z" fill="#F2FBFF"/>
<path d="M289.895 66.096H223.007L247.053 21.1195C251.085 13.5666 261.924 13.5772 265.946 21.1302L289.895 66.096Z" fill="#FEE97D"/>
</g>
<defs>
<clipPath id="clip0">
<rect width="512" height="512" fill="white"/>
</clipPath>
</defs>
</svg>
