<svg width="83" height="83" viewBox="0 0 83 83" fill="none" xmlns="http://www.w3.org/2000/svg">
<path d="M50.542 41.5115C50.542 42.1571 50.4788 42.7965 50.3524 43.4297C50.2261 44.063 50.0389 44.6778 49.7909 45.2743C49.543 45.8708 49.2391 46.4374 48.8791 46.9742C48.5192 47.511 48.1101 48.0077 47.652 48.4642C47.1938 48.9207 46.6954 49.3283 46.1567 49.687C45.618 50.0457 45.0494 50.3486 44.4508 50.5957C43.8522 50.8427 43.2352 51.0292 42.5997 51.1552C41.9643 51.2811 41.3226 51.3441 40.6747 51.3441C40.0268 51.3441 39.3851 51.2811 38.7497 51.1552C38.1142 51.0292 37.4972 50.8427 36.8986 50.5957C36.3001 50.3486 35.7314 50.0457 35.1927 49.687C34.654 49.3283 34.1556 48.9207 33.6975 48.4642C33.2393 48.0077 32.8303 47.511 32.4703 46.9742C32.1104 46.4374 31.8064 45.8708 31.5585 45.2743C31.3105 44.6778 31.1234 44.063 30.997 43.4297C30.8706 42.7965 30.8074 42.1571 30.8074 41.5115C30.8074 40.8659 30.8706 40.2264 30.997 39.5932C31.1234 38.96 31.3105 38.3452 31.5585 37.7487C31.8064 37.1522 32.1104 36.5856 32.4703 36.0488C32.8303 35.512 33.2393 35.0153 33.6975 34.5588C34.1556 34.1022 34.654 33.6946 35.1927 33.3359C35.7314 32.9773 36.3001 32.6744 36.8986 32.4273C37.4972 32.1802 38.1142 31.9937 38.7497 31.8678C39.3851 31.7418 40.0268 31.6788 40.6747 31.6788C41.3226 31.6788 41.9643 31.7418 42.5997 31.8678C43.2352 31.9937 43.8522 32.1802 44.4508 32.4273C45.0494 32.6744 45.618 32.9773 46.1567 33.3359C46.6954 33.6946 47.1938 34.1022 47.652 34.5588C48.1101 35.0153 48.5192 35.512 48.8791 36.0488C49.2391 36.5856 49.543 37.1522 49.7909 37.7487C50.0389 38.3452 50.2261 38.96 50.3524 39.5932C50.4788 40.2264 50.542 40.8659 50.542 41.5115Z" fill="black"/>
<path d="M40.6747 0.22158C21.3666 0.22158 5.14509 13.3822 0.543951 31.189C0.500828 31.3494 0.477934 31.5127 0.475281 31.6788C0.475281 32.7593 1.35719 33.6453 2.44875 33.6453H19.1582C19.5445 33.6466 19.9 33.5428 20.2245 33.3338C20.5489 33.1247 20.7899 32.8444 20.9473 32.4928C20.9473 32.4928 20.9726 32.446 20.9834 32.4208C24.428 25.0157 31.9496 19.876 40.682 19.876C52.671 19.876 62.3901 29.5574 62.3901 41.5042C62.3901 53.4511 52.6746 63.1325 40.6856 63.1325C31.9568 63.1325 24.4352 57.9928 20.9871 50.5877C20.9762 50.5625 20.9509 50.5157 20.9509 50.5157C20.6328 49.817 19.9316 49.3631 19.1618 49.3631H2.45236C1.36081 49.3631 0.478893 50.242 0.478893 51.3297C0.480773 51.4959 0.50367 51.6592 0.547564 51.8195C5.14871 69.6263 21.3738 82.7869 40.6783 82.7869C63.5648 82.7833 82.1501 64.2994 82.1501 41.497C82.1501 18.6947 63.5973 0.207153 40.7145 0.207153L40.6747 0.22158Z" fill="black"/>
</svg>
